<mxfile host="app.diagrams.net" modified="2023-11-08T12:07:16.487Z" agent="Mozilla/5.0 (Windows NT 10.0; Win64; x64) AppleWebKit/537.36 (KHTML, like Gecko) Chrome/119.0.0.0 Safari/537.36" version="22.0.8" etag="RWDYkMDr8IoGYhpKsAHM" type="github">
  <diagram name="Page-1" id="tPjHnnhxBDcecm1_c8NP">
    <mxGraphModel>
      <root>
        <mxCell id="0" />
        <mxCell id="1" parent="0" />
      </root>
    </mxGraphModel>
  </diagram>
</mxfile>
